<?xml version="1.0" encoding="UTF-8" standalone="no"?>
<!-- Created with Inkscape (http://www.inkscape.org/) -->

<svg
   xmlns:dc="http://purl.org/dc/elements/1.1/"
   xmlns:cc="http://creativecommons.org/ns#"
   xmlns:rdf="http://www.w3.org/1999/02/22-rdf-syntax-ns#"
   xmlns:svg="http://www.w3.org/2000/svg"
   xmlns="http://www.w3.org/2000/svg"
   xmlns:sodipodi="http://sodipodi.sourceforge.net/DTD/sodipodi-0.dtd"
   xmlns:inkscape="http://www.inkscape.org/namespaces/inkscape"
   version="1.0"
   width="876.66235"
   height="539.62476"
   id="svg2407"
   sodipodi:docname="20120929105200!CarrefourLogo.svg"
   inkscape:version="0.92.2 (5c3e80d, 2017-08-06)">
  <title
     id="title59">Carrefour 1966</title>
  <metadata
     id="metadata21">
    <rdf:RDF>
      <cc:Work
         rdf:about="">
        <dc:format>image/svg+xml</dc:format>
        <dc:type
           rdf:resource="http://purl.org/dc/dcmitype/StillImage" />
        <dc:title>Carrefour 1966</dc:title>
      </cc:Work>
    </rdf:RDF>
  </metadata>
  <sodipodi:namedview
     pagecolor="#ffffff"
     bordercolor="#666666"
     borderopacity="1"
     objecttolerance="10"
     gridtolerance="10"
     guidetolerance="10"
     inkscape:pageopacity="0"
     inkscape:pageshadow="2"
     inkscape:window-width="1366"
     inkscape:window-height="705"
     id="namedview19"
     showgrid="false"
     fit-margin-top="0"
     fit-margin-left="0"
     fit-margin-right="0"
     fit-margin-bottom="0"
     inkscape:zoom="0.55"
     inkscape:cx="444.70249"
     inkscape:cy="46.566096"
     inkscape:window-x="-8"
     inkscape:window-y="-8"
     inkscape:window-maximized="1"
     inkscape:current-layer="svg2407" />
  <defs
     id="defs2409" />
  <g
     id="g21"
     transform="scale(1.5313263)">
    <path
       d="m 572.48566,176.64831 c 0,2.8352 -2.83533,5.65744 -2.83533,5.65744 l -155.88288,154.9508 c -5.67033,6.60245 -9.43762,2.83517 -7.53456,-1.89011 3.76729,-7.5605 9.43764,-16.05306 15.09504,-34.94128 8.5184,-27.40672 8.5184,-50.08812 4.72529,-63.31896 -2.83517,-12.25988 -17.9561,-37.77647 -50.99432,-37.77647 -42.52765,0 -54.78755,38.73448 -53.85542,52.89741 0.93211,9.4506 0,23.61353 15.12094,36.84436 11.32776,9.45059 21.72342,6.62836 24.54565,5.6833 2.83517,0 8.51846,-3.79318 8.51846,5.67036 0,10.39562 -9.45058,23.61351 -15.12093,30.21598 -6.62835,5.67034 -27.4067,21.7493 -57.6227,21.7493 -17.95612,0 -39.69249,-7.56047 -54.78752,-25.5166 -11.35366,-13.21789 -18.91413,-28.33882 -25.5166,-50.06223 -13.21788,-39.69246 -15.12095,-68.97636 -15.12095,-100.15033 0,-28.33883 2.8352,-59.52577 15.12095,-99.19236 5.67036,-20.77834 16.05307,-39.67951 25.5166,-51.96528 C 256.02031,7.54753 278.70174,0 296.6449,0 c 30.216,0 50.99435,16.05304 57.6227,22.66847 5.67035,5.67034 15.12093,18.88823 15.12093,30.22894 0,8.50552 -5.68329,4.72528 -8.51846,4.72528 -2.8352,-0.94506 -13.21789,-3.78023 -24.54565,5.67035 -15.12094,13.21789 -14.18883,28.33882 -15.12094,36.84436 -0.93213,15.108 11.32777,52.89741 53.85542,52.89741 33.05116,0 48.1721,-24.5586 50.99432,-37.78941 3.79311,-13.21788 3.79311,-35.89931 -4.72529,-62.34799 -5.67035,-19.84624 -11.32775,-27.39377 -15.09504,-35.8993 -1.89012,-3.78022 1.87717,-8.50553 7.53456,-1.89011 l 155.88288,154.92491 c 0,-0.0129 2.83533,2.83518 2.83533,6.6154 z"
       id="path25"
       style="fill:#0f3193;fill-opacity:1;fill-rule:evenodd;stroke-width:12.9460125"
       inkscape:connector-curvature="0" />
    <path
       d="m 0,174.75821 c 0,3.78024 3.767274,6.61541 3.767274,6.61541 l 165.333516,158.7181 c 4.69941,3.76728 5.67035,0 4.69941,-2.83517 -0.93212,-1.89011 -1.87716,-2.83518 -6.60247,-10.39564 -45.33693,-65.18317 -44.40481,-152.1027 -44.40481,-152.1027 0,0 -0.93212,-86.91953 44.40481,-151.15763 4.72531,-7.56047 5.67035,-8.50554 6.60247,-11.32776 0.958,-2.83518 0,-6.61541 -4.69941,-2.83518 L 3.767274,168.14281 C 3.767274,168.12981 0,170.97798 0,174.75821 Z"
       id="path27"
       style="fill:#fe0000;fill-opacity:0.94117647;fill-rule:evenodd;stroke-width:12.9460125"
       inkscape:connector-curvature="0" />
  </g>
</svg>
